<svg width="70" height="57" viewBox="0 0 70 57" fill="none" xmlns="http://www.w3.org/2000/svg">
<path d="M3.943 6.9H7.554L9.164 18.423H9.21L10.82 6.9H14.431V23H12.039V10.81H11.993L10.153 23H8.037L6.197 10.81H6.151V23H3.943V6.9ZM19.424 6.9H22.851L25.473 23H22.943L22.483 19.803V19.849H19.608L19.148 23H16.802L19.424 6.9ZM22.184 17.664L21.057 9.706H21.011L19.907 17.664H22.184ZM27.8504 6.9H31.5994C32.9028 6.9 33.8534 7.20667 34.4514 7.82C35.0494 8.418 35.3484 9.34567 35.3484 10.603V11.592C35.3484 13.2633 34.7964 14.3213 33.6924 14.766V14.812C34.3058 14.996 34.7351 15.3717 34.9804 15.939C35.2411 16.5063 35.3714 17.2653 35.3714 18.216V21.045C35.3714 21.505 35.3868 21.8807 35.4174 22.172C35.4481 22.448 35.5248 22.724 35.6474 23H33.0714C32.9794 22.7393 32.9181 22.494 32.8874 22.264C32.8568 22.034 32.8414 21.62 32.8414 21.022V18.078C32.8414 17.342 32.7188 16.8283 32.4734 16.537C32.2434 16.2457 31.8371 16.1 31.2544 16.1H30.3804V23H27.8504V6.9ZM31.3004 13.8C31.8064 13.8 32.1821 13.6697 32.4274 13.409C32.6881 13.1483 32.8184 12.7113 32.8184 12.098V10.856C32.8184 10.2733 32.7111 9.85167 32.4964 9.591C32.2971 9.33033 31.9751 9.2 31.5304 9.2H30.3804V13.8H31.3004ZM38.2768 6.9H40.8068V13.685L44.0268 6.9H46.5568L43.5438 12.811L46.6028 23H43.9578L41.8188 15.824L40.8068 17.871V23H38.2768V6.9ZM48.9502 6.9H55.8502V9.2H51.4802V13.455H54.9532V15.755H51.4802V20.7H55.8502V23H48.9502V6.9ZM60.4337 9.2H57.7887V6.9H65.6087V9.2H62.9637V23H60.4337V9.2Z" fill="#15151C"/>
<path fill-rule="evenodd" clip-rule="evenodd" d="M70 28H0V57H70V28ZM7.94471 34.6H4.38071V50H6.80071V43.73H7.94471C9.14738 43.73 10.0494 43.4073 10.6507 42.762C11.252 42.1167 11.5527 41.1707 11.5527 39.924V38.406C11.5527 37.1593 11.252 36.2133 10.6507 35.568C10.0494 34.9227 9.14738 34.6 7.94471 34.6ZM8.82471 41.2C8.63404 41.42 8.34071 41.53 7.94471 41.53H6.80071V36.8H7.94471C8.34071 36.8 8.63404 36.91 8.82471 37.13C9.03004 37.35 9.13271 37.724 9.13271 38.252V40.078C9.13271 40.606 9.03004 40.98 8.82471 41.2ZM19.7716 34.6H16.4936L13.9856 50H16.2296L16.6696 46.986H19.4196V46.942L19.8596 50H22.2796L19.7716 34.6ZM18.0556 37.284L19.1336 44.896H16.9556L18.0116 37.284H18.0556ZM28.4037 34.6H25.9837V50H32.3857V47.8H28.4037V34.6ZM41.3101 34.6H38.0321L35.5241 50H37.7681L38.2081 46.986H40.9581V46.942L41.3981 50H43.8181L41.3101 34.6ZM39.5941 37.284L40.6721 44.896H38.4941L39.5501 37.284H39.5941ZM48.2272 49.23C48.8432 49.89 49.7306 50.22 50.8892 50.22C52.0479 50.22 52.9279 49.89 53.5292 49.23C54.1452 48.57 54.4532 47.6387 54.4532 46.436V44.258H52.1652V46.612C52.1652 47.5507 51.7619 48.02 50.9552 48.02C50.1486 48.02 49.7452 47.5507 49.7452 46.612V38.01C49.7452 37.0567 50.1486 36.58 50.9552 36.58C51.7619 36.58 52.1652 37.0567 52.1652 38.01V39.792H54.4532V38.164C54.4532 36.9613 54.1452 36.03 53.5292 35.37C52.9279 34.71 52.0479 34.38 50.8892 34.38C49.7306 34.38 48.8432 34.71 48.2272 35.37C47.6259 36.03 47.3252 36.9613 47.3252 38.164V46.436C47.3252 47.6387 47.6259 48.57 48.2272 49.23ZM65.0311 34.6H58.4311V50H65.0311V47.8H60.8511V43.07H64.1731V40.87H60.8511V36.8H65.0311V34.6Z" fill="#15151C"/>
<rect x="0.5" y="0.5" width="69" height="28" stroke="#15151C"/>
</svg>
